/* XPM */
static char *_457f2b6d7954175c2b349b028a59042rfBSnU9UowKKe7XO[] = {
/* columns rows colors chars-per-pixel */
"48 48 19 1 ",
"  c #323234",
". c #534721",
"X c #545456",
"o c #77584A",
"O c #705654",
"+ c #626262",
"@ c #767678",
"# c #7B7B7B",
"$ c #8B5E4A",
"% c #A77E5D",
"& c #8F7772",
"* c #929292",
"= c #979799",
"- c #A48D87",
"; c #B7A099",
": c gray65",
"> c #B7B7B7",
", c #B7B7BB",
"< c #D2D2D6",
/* pixels */
">>>>>>>>>:::::::::::::::::::::::::::>>>>>>>>>###",
">>>>>>>>>:::::::::::::::::::::::::::>>>>>>>>>###",
">>>>>>>>>:::::::::::::::::::::::::::>>>>>>>>>###",
">>>:::::::::::::::::::::::::::::::::::::::>>>+++",
">>>:::::::::::::::::::::::::::::::::::::::>>>+++",
">>>:::::::::::::::::::::::::::::::::::::::>>>+++",
">>>:::::::::::::::::::::::::::::::::::::::>>>+++",
">>>:::::::::::::::::::::::::::::::::::::::>>>+++",
">>>:::::::::::::::::       :::::::::::::::>>>+++",
"::::::::::::::::::  XX@@@XX  ::::::::::::::::+++",
"::::::::::::::::: X@@=====@@X :::::::::::::::+++",
":::::::::::::::: X@===,,,===@X ::::::::::::::+++",
"::::::::::::::: X@===,,,,,===@X :::::::::::::+++",
":::::::::::::: X@===,,,,,,,===@X ::::::::::::+++",
":::::::::::::: @@===,,,,,,,===@@ ::::::::::::+++",
"::::::::::::: X@=====,,,,,=====@X ::=::::::::###",
"::::::::::::: X@===============@X :==::::::::###",
"::::::::::::: X@===============@X =<=::::::::###",
":::::::::::: @ X@=============@X @ <=::::::::###",
":::::::::::: @ X@@===========@@X @ <=::::::::###",
":::::::::::: X XX@@@=======@@@XX X <=::::::::###",
"::::::::::::   XXX@@@@@@@@@@@XXX   <=::::::::###",
"::::::::::::: XXXXXX@@@@@@@XXXXXX <<=::::::::###",
"::::::::::::: X@XXXXXXXXXXXXXXX@X <=:::::::::###",
":::::::::::::: X@@XXXXXXXXXXX@@X <<=:::::::::###",
"::::::::::::: X  X@@@=====@@@X  X <=:::::::::###",
":::::::::::  @=,,   XXXXXXX   ,,=@ =:::::::::###",
":::::::::: = X==,X X@@@@@@@X X,==X ::::::::::+++",
":::::::::: =. XX  @@=======@@  XX =::::::::::+++",
":::::::::: = @,=@ X@@=====@@X @=,@  :::::::::+++",
":::::::::: = ==@X  XX@@@@@XX  X@== @ ::::::::+++",
":::::::::: =.%%X  X   XXX   X  X%%. :::::::::+++",
":::::::::: =.$$  X@,&-;-;-&,@X  $$.::::::::::+++",
">>>::::::: =.... X=,&OOOOO&,=X :..::::::::>>>+++",
">>>::::::: @X...X =O-&...&-O= ::::::::::::>>>+++",
">>>:::::::: @X.@ : X@@   @@X :::::::::::::>>>+++",
">>>::::::::: @X ::.$%o.:.o%$.:::::::::::::>>>+++",
">>>::::::::::  :::.%%$.:.$%%.:::::::::::::>>>+++",
">>>::::::::::::::::...:::...::::::::::::::>>>+++",
">>>>>>>>>:::::::::::::::::::::::::::>>>>>>>>>+++",
">>>>>>>>>:::::::::::::::::::::::::::>>>>>>>>>+++",
">>>>>>>>>:::::::::::::::::::::::::::>>>>>>>>>+++",
"*********************************************###",
"*********************************************###",
"*********************************************###",
"###++++++++++++############+++++++++++++++######",
"###++++++++++++############+++++++++++++++######",
"###++++++++++++############+++++++++++++++######"
};
