/* XPM */
static char *_9420ff5983d4b659d48929a59ee04a9IFNlzsB82kfQmLv0[] = {
/* columns rows colors chars-per-pixel */
"48 48 19 1 ",
"  c #2E1E22",
". c #323234",
"X c #534721",
"o c #545456",
"O c #77584A",
"+ c #626262",
"@ c #767678",
"# c #7B7B7B",
"$ c #8B5E4A",
"% c #A77E5D",
"& c #929292",
"* c #979799",
"= c gray65",
"- c #B7B7B7",
"; c #B7B7BB",
": c #EEBE93",
"> c #FFE1AF",
", c #D2D2D6",
"< c white",
/* pixels */
"---------===========================---------###",
"---------===========================---------###",
"---------===========================---------###",
"---=======================================---+++",
"---=======================================---+++",
"---=======================================---+++",
"---=======================================---+++",
"---=======================================---+++",
"---==================.......==============---+++",
"===================..oo@@@oo..===============+++",
"==================.o@@*****@@o.==============+++",
"=================.o@***;;;***@o.=============+++",
"================.o@***;;;;;***@o.============+++",
"===============.o@***;;;;;;;***@o.===========+++",
"===============.@@***;;;;;;;***@@.===========+++",
"==============.o@*****;;;;;*****@o.==========###",
"==============.o@******@...@@**@o..==========###",
"==============.o@*****@.@**ooooo.*o.=========###",
"==============.o@@*@oo.@*;;;;;;**@o.=========###",
"==============.o@@@o*;o@; @****@@*.==========###",
"==============.oo@.*oo;o;o      **..=========###",
"==============.ooo.@..*o*;o    *<*o.=========###",
"==============.ooo.o..*.o*;;;**<<*.==========###",
"===============.ooo.o@..>o@***<<;.===========###",
"================.ooo..o.>>>>*<<<*============###",
"================.oooo@o.:::*<<,*=============###",
"===============.o@*;@o.XXX*<<,*..============###",
"================......o.o*<<,*.@o.===========+++",
"==================.@*.@o*<<,*o.Xo.===========+++",
"==================.o.@.*<<,*o..Xo.===========+++",
"===================..*@<<,*o@o.Xo.===========+++",
"===================X@.*@,*oo..@@o.===========+++",
"===================X$%o*@o.*@.@@o.===========+++",
"---================XO%%o**@.@.@Xo.========---+++",
"---=================XXX@...*o.@Xo.========---+++",
"---==================Xo..o....@Xo.========---+++",
"---==================XO$%$X===.@.=========---+++",
"---==================XO$%%X====.==========---+++",
"---===================XXXX================---+++",
"---------===========================---------+++",
"---------===========================---------+++",
"---------===========================---------+++",
"&&&&&&&&&&&&&&&&&&&&&&&&&&&&&&&&&&&&&&&&&&&&&###",
"&&&&&&&&&&&&&&&&&&&&&&&&&&&&&&&&&&&&&&&&&&&&&###",
"&&&&&&&&&&&&&&&&&&&&&&&&&&&&&&&&&&&&&&&&&&&&&###",
"###++++++++++++############+++++++++++++++######",
"###++++++++++++############+++++++++++++++######",
"###++++++++++++############+++++++++++++++######"
};
