/* XPM */
static char *result[] = {
/* columns rows colors chars-per-pixel */
"48 48 21 1 ",
"  c #2E1E22",
". c #323234",
"X c #534721",
"o c #6E5E2C",
"O c #545456",
"+ c #77584A",
"@ c #626262",
"# c #767678",
"$ c #7B7B7B",
"% c #8B5E4A",
"& c #9D704C",
"* c #A77E5D",
"= c #D7906E",
"- c #929292",
"; c #979799",
": c gray65",
"> c #B7B7B7",
", c #B7B7BB",
"< c #EEBE93",
"1 c #FFE1AF",
"2 c #D2D2D6",
/* pixels */
">>>>>>>>>:::::::::::::::::::::::::::>>>>>>>>>$$$",
">>>>>>>>>:::::::::::::::::::::::::::>>>>>>>>>$$$",
">>>>>>>>>:::::::::::::::::::::::::::>>>>>>>>>$$$",
">>>:::::::::::::::::::::::::::::::::::::::>>>@@@",
">>>:::::::::::::::::::::::::::::::::::::::>>>@@@",
">>>:::::::::::::::::::::::::::::::::::::::>>>@@@",
">>>:::::::::::::::::::::::::::::::::::::::>>>@@@",
">>>:::::::::::::::::::::::::::::::::::::::>>>@@@",
">>>:::::::::::::::::.......:::::::::::::::>>>@@@",
"::::::::::::::::::..OO###OO..::::::::::::::::@@@",
":::::::::::::::::.O##;;;;;##O.:::::::::::::::@@@",
"::::::::::::::::.O#;;;,,,;;;#O.::::::::::::::@@@",
":::::::::::::::.O#;;;,,,,,;;;#O.:::::::::::::@@@",
"::::::::::::::.O#;;;,,,,,,,;;;#O.::::::::::::@@@",
"::::::::::::::.##;;;,,,,,,,;;;##.::::::::::::@@@",
":::::::::::;:.O#;;;;;,,,,,;;;;;#O.:::::::::::$$$",
":::::::::::;;..O#;;##...#;;;;;;#O.:::::::::::$$$",
":::::::::::;.O;.OOOOO;;#.#;;;;;#O.:::::::::::$$$",
":::::::::::;.O#;;,,,,,,;#.OO#;##O.:::::::::::$$$",
":::::::::::;2.O##;;;;# ,#O,;O###O.:::::::::::$$$",
":::::::::::;..        O,O,OO;.#OO.:::::::::::$$$",
"::::::::::::.O       O,;O;..#.OOO.:::::::::::$$$",
"::::::::::::;.O#;;;,,,;O.;..O.OOO.:::::::::::$$$",
":::::::::::::;..O##;;#O1..#O.OOO.::::::::::::$$$",
":::::::::::::;22X=<11111.O..OOO.:::::::::::::$$$",
"::::::::::::::;22X&==<<<.O#OOOO.:::::::::::::$$$",
"::::::::::::::;22;XXXXXXX.O#,.....:::::::::::$$$",
":::::::::::::::;2.O##;#O.....#;#O.:::::::::::@@@",
":::::::::::::::;2.O#;,,#O.#;,,XoO.:::::::::::@@@",
"::::::::::::::.O#..O;,;#..#oXoXoO.:::::::::::@@@",
":::::::::::::.###.O#OO....#oXoXoO.:::::::::::@@@",
"::::::::::::::...:..OOOOO.#;,,;#O.:::::::::::@@@",
"::::::::::::::::::.#;,O,,.#;,,;#O.:::::::::::@@@",
">>>:::::::::::::::.#;;.;;.#oXoXoO.::::::::>>>@@@",
">>>:::::::::::::::XX%#O.#.O;XoXoO.::::::::>>>@@@",
">>>::::::::::::::X**%%OX...O;oX#.:::::::::>>>@@@",
">>>::::::::::::::X***+X::XX.O;;.::::::::::>>>@@@",
">>>:::::::::::::::XXXX::::::...:::::::::::>>>@@@",
">>>:::::::::::::::::::::::::::::::::::::::>>>@@@",
">>>>>>>>>:::::::::::::::::::::::::::>>>>>>>>>@@@",
">>>>>>>>>:::::::::::::::::::::::::::>>>>>>>>>@@@",
">>>>>>>>>:::::::::::::::::::::::::::>>>>>>>>>@@@",
"---------------------------------------------$$$",
"---------------------------------------------$$$",
"---------------------------------------------$$$",
"$$$@@@@@@@@@@@@$$$$$$$$$$$$@@@@@@@@@@@@@@@$$$$$$",
"$$$@@@@@@@@@@@@$$$$$$$$$$$$@@@@@@@@@@@@@@@$$$$$$",
"$$$@@@@@@@@@@@@$$$$$$$$$$$$@@@@@@@@@@@@@@@$$$$$$"
};
