/* XPM */
static char *c050f019816a42c9f7d88fb08471c355F9ELHMKWiTZxQNBh[] = {
/* columns rows colors chars-per-pixel */
"48 48 21 1 ",
"  c #2E1E22",
". c #323234",
"X c #534721",
"o c #6E5E2C",
"O c #545456",
"+ c #77584A",
"@ c #626262",
"# c #767678",
"$ c #7B7B7B",
"% c #8B5E4A",
"& c #9D704C",
"* c #A77E5D",
"= c #D7906E",
"- c #929292",
"; c #979799",
": c gray65",
"> c #B7B7B7",
", c #B7B7BB",
"< c #EEBE93",
"1 c #FFE1AF",
"2 c white",
/* pixels */
">>>>>>>>>:::::::::::::::::::::::::::>>>>>>>>>$$$",
">>>>>>>>>:::::::::::::::::::::::::::>>>>>>>>>$$$",
">>>>>>>>>:::::::::::::::::::::::::::>>>>>>>>>$$$",
">>>:::::::::::::::::::::::::::::::::::::::>>>@@@",
">>>:::::::::::::::::::::::::::::::::::::::>>>@@@",
">>>:::::::::::::::::::::::::::::::::::::::>>>@@@",
">>>:::::::::::::::::::::::::::::::::::::::>>>@@@",
">>>:::::::::::::::::::::::::::::::::::::::>>>@@@",
">>>:::::::::::::::::::::::::::::::::::::::>>>@@@",
":::::::::::::::::::.......:::::::::::::::::::@@@",
":::::::::::::::::..OO###OO..:::::::::::::::::@@@",
"::::::::::::::::.O##;;;;;##O.::::::::::::::::@@@",
":::::::::::::::.O#;;;,,,;;;#O.:::::::::::::::@@@",
"::::::::::::::.O#;;;,,,,,;;;#O.::::::::::::::@@@",
":::::::::::::.O#;;;,,,,,,,;;;#O.:::::::::::::@@@",
":::::::::::::.##;;;,,,,,,,;;;##.:::::::::::::$$$",
"::::::::::::.O#;;;;;,,,,,;;;;;#O.::::::::::::$$$",
"::::::::::::.O#;.O##;;;;;##O..#O.::::::::::::$$$",
"::::::::::::.O;2;..OOOOOOO..;O.O.::::::::::::$$$",
":::::::::::.#.,2;;;,,,,,,,;;##O.#.:::::::::::$$$",
":::::::::::.#;22;O##;;;;;##O OO.#.:::::::::::$$$",
":::::::::::.O;22;           O;O.O.:::::::::::$$$",
":::::::::::..;22;O         O;#O...:::::::::::$$$",
"::::::::::::.;22;;;,,,,,,,;;#O...::::::::::::$$$",
"::::::::::::.;22;O##;;;;;##O..OO.:..:::::::::$$$",
":::::::::::::;22;=<1111111<=.#O...O.:::::::::$$$",
"::::::::::::.;22;X&=<<<<<=&X....O;O.:::::::::$$$",
":::::::::::.#;22;OXXXXXXXXXO#,.,;OX.:::::::::@@@",
":::::::::::.O;22;.O#;###;#O.O;.,XoX.:::::::::@@@",
"::::::::::::.;22;#;,,;;;,,;#.O.,XoO.:::::::::@@@",
":::::::::::..O###O.;#OOO#;;#...,;;O.:::::::::@@@",
":::::::::::.;;;;;#.OO#;#OO...:.,;#X.:::::::::@@@",
"::::::::::::..O...O..OOO..O#O..,XoX.:::::::::@@@",
">>>:::::::::X+%%X#,#O,,,O#;,#O.,XoO.::::::>>>@@@",
">>>::::::::::XXXO;,.#;,;#..,;O..;o.:::::::>>>@@@",
">>>:::::::::::::.;.O.#;#.#O.,.:.O;.:::::::>>>@@@",
">>>::::::::::::::.%%%...;,;O.:::..::::::::>>>@@@",
">>>:::::::::::::::XXX::+**%X::::::::::::::>>>@@@",
">>>::::::::::::::::::::+***X::::::::::::::>>>@@@",
">>>>>>>>>:::::::::::::::::::::::::::>>>>>>>>>@@@",
">>>>>>>>>:::::::::::::::::::::::::::>>>>>>>>>@@@",
">>>>>>>>>:::::::::::::::::::::::::::>>>>>>>>>@@@",
"---------------------------------------------$$$",
"---------------------------------------------$$$",
"---------------------------------------------$$$",
"$$$@@@@@@@@@@@@$$$$$$$$$$$$@@@@@@@@@@@@@@@$$$$$$",
"$$$@@@@@@@@@@@@$$$$$$$$$$$$@@@@@@@@@@@@@@@$$$$$$",
"$$$@@@@@@@@@@@@$$$$$$$$$$$$@@@@@@@@@@@@@@@$$$$$$"
};
