/* XPM */
static char *bd77ee130aed4e7ad65c5d1126d46c6eqtFqJ16ZZZUIOtTK[] = {
/* columns rows colors chars-per-pixel */
"48 48 22 1 ",
"  c #2E1E22",
". c #323234",
"X c #534721",
"o c #6E5E2C",
"O c #545456",
"+ c #77584A",
"@ c #626262",
"# c #767678",
"$ c #7B7B7B",
"% c #8B5E4A",
"& c #9D704C",
"* c #A77E5D",
"= c #D7906E",
"- c #929292",
"; c #979799",
": c gray65",
"> c #B7B7B7",
", c #B7B7BB",
"< c #EEBE93",
"1 c #FFE1AF",
"2 c #D2D2D6",
"3 c white",
/* pixels */
">>>>>>>>>:::::::::::::::::::::::::::>>>>>>>>>$$$",
">>>>>>>>>:::::::::::::::::::::::::::>>>>>>>>>$$$",
">>>>>>>>>:::::::::::::::::::::::::::>>>>>>>>>$$$",
">>>:::::::::::::::::::::::::::::::::::::::>>>@@@",
">>>:::::::::::::::::::::::::::::::::::::::>>>@@@",
">>>:::::::::::::::::::::::::::::::::::::::>>>@@@",
">>>:::::::::::::::::::::::::::::::::::::::>>>@@@",
">>>:::::::::::::::::::::::::::::::::::::::>>>@@@",
">>>:::::::::::::::::.......:::::::::::::::>>>@@@",
"::::::::::::::::::..OO###OO..::::::::::::::::@@@",
":::::::::::::::::.O##;;;;;##O.:::::::::::::::@@@",
"::::::::::::::::.O#;;;,,,;;;#O.::::::::::::::@@@",
":::::::::::::::.O#;;;,,,,,;;;#O.:::::::::::::@@@",
"::::::::::::::.O#;;;,,,,,,,;;;#O.::::::::::::@@@",
"::::::::::::::.##;;;,,,,,,,;;;##.::::::::::::@@@",
":::::::::::::.O#;;;;;,,,,,;;;;;#O.:::::::::::$$$",
":::::::::;:::.O#..O##;;;;;##O..#O.:::::::::::$$$",
":::::::::;;::.O.O;..OOOOOOO..;O.O.:::::::::::$$$",
":::::::::;3;.#.O##;;,,,,,,,;;##O.#.::::::::::$$$",
":::::::::;3,.#.OO O##;;;;;##O OO.#.::::::::::$$$",
":::::::::;33;O.O;O           O;O.O.::::::::::$$$",
":::::::::;33;..O#;O         O;#O...::::::::::$$$",
":::::::::;23;...O#;;,,,,,,,;;#O...:::::::::::$$$",
":::::::::;23,.OO..O##;;;;;##O..OO.:::::::::::$$$",
"::::::::::;33;.O#.=<1111111<=.#O.::::::::::::$$$",
"::::::::::;33;O...X&=<<<<<=&X...O.:...:::::::$$$",
"::::::::::;23;;,,#OXXXXXXXXXO#,,...O#.:::::::$$$",
"::::::::::;23,;;,O.O#;###;#O....O;##O.:::::::@@@",
":::::::::::;33....#;,,;;;,,;#.#;,OXoO.:::::::@@@",
":::::::::::;33O;;.#;;#OOO#;;#.#oXoXoO.:::::::@@@",
"::::::::::.O#;;O....OO#;#OO...#oXoO#O.:::::::@@@",
":::::::::.#;;OO...OO..OOO..OO.#;,;#OO.:::::::@@@",
"::::::::::...%%..O#,#O,,,O#,#.#;;#XoO.:::::::@@@",
">>>::::::::::XX:.O;,.#;,;#.,;.#oXoXoO.::::>>>@@@",
">>>::::::::::::::.;.O.#;#.O.;.#;XoXoO.::::>>>@@@",
">>>:::::::::::::::.O,#...#,O.:.O;oXO.:::::>>>@@@",
">>>:::::::::::::::X%%+X:X+%%X::.O;#.::::::>>>@@@",
">>>:::::::::::::::X**%X:X%**X:::...:::::::>>>@@@",
">>>::::::::::::::::XXX:::XXX::::::::::::::>>>@@@",
">>>>>>>>>:::::::::::::::::::::::::::>>>>>>>>>@@@",
">>>>>>>>>:::::::::::::::::::::::::::>>>>>>>>>@@@",
">>>>>>>>>:::::::::::::::::::::::::::>>>>>>>>>@@@",
"---------------------------------------------$$$",
"---------------------------------------------$$$",
"---------------------------------------------$$$",
"$$$@@@@@@@@@@@@$$$$$$$$$$$$@@@@@@@@@@@@@@@$$$$$$",
"$$$@@@@@@@@@@@@$$$$$$$$$$$$@@@@@@@@@@@@@@@$$$$$$",
"$$$@@@@@@@@@@@@$$$$$$$$$$$$@@@@@@@@@@@@@@@$$$$$$"
};
