/* XPM */
static char *fc17b988163f46f7939e9e1a5dc9c3e5RTpRwZCkI5Nq4nUC[] = {
/* columns rows colors chars-per-pixel */
"48 48 22 1 ",
"  c #2E1E22",
". c #323234",
"X c #534721",
"o c #6E5E2C",
"O c #545456",
"+ c #77584A",
"@ c #626262",
"# c #767678",
"$ c #7B7B7B",
"% c #8B5E4A",
"& c #9D704C",
"* c #A77E5D",
"= c #D7906E",
"- c #929292",
"; c #979799",
": c gray65",
"> c #B7B7B7",
", c #B7B7BB",
"< c #EEBE93",
"1 c #FFE1AF",
"2 c #D2D2D6",
"3 c white",
/* pixels */
">>>>>>>>>:::::::::::::::::::::::::::>>>>>>>>>$$$",
">>>>>>>>>:::::::::::::::::::::::::::>>>>>>>>>$$$",
">>>>>>>>>:::::::::::::::::::::::::::>>>>>>>>>$$$",
">>>:::::::::::::::::::::::::::::::::::::::>>>@@@",
">>>:::::::::::::::::::::::::::::::::::::::>>>@@@",
">>>:::::::::::::::::::::::::::::::::::::::>>>@@@",
">>>:::::::::::::::::::::::::::::::::::::::>>>@@@",
">>>:::::::::::::::::::::::::::::::::::::::>>>@@@",
">>>:::::::::::::::::::::::::::::::::::::::>>>@@@",
":::::::::::::::::::.......:::::::::::::::::::@@@",
":::::::::::::::::..OO###OO..:::::::::::::::::@@@",
"::::::::::::::::.O##;;;;;##O.::::::::::::::::@@@",
":::::::::::::::.O#;;;,,,;;;#O.:::::::::::::::@@@",
"::::::::::::::.O#;;;,,,,,;;;#O.::::::::::::::@@@",
":::::::::::::.O#;;;,,,,,,,;;;#O.:::::::::::::@@@",
":::::::::::::.##;;;,,,,,,,;;;##.:::::::::::::$$$",
"::::::::::::.O#;;;;;,,,,,;;;;;#O.::::::::::::$$$",
"::::::::::::.O#;;;;;;#...##;;#O..::::::::::::$$$",
"::::::::::::.O#;;;;;#.#;;OOOOO.;O.:::::::::::$$$",
"::::::::::::.O##;#OO.#;,,,,,,;;#O.:::::::::::$$$",
"::::::::::::.O###O;,O#, #;;;;##O.::::::::::::$$$",
"::::::::::::.OO#.;OO,O,O        ..:::::::::::$$$",
"::::::::::::.OOO.#..;O;,O       O.:::::::::::$$$",
"::::::::::::.OOO.O..;.O;,,,;;;#O.::::::::::::$$$",
":::::::::::::.OOO.O#..1O#;;##O..:::::::::::::$$$",
"::::::::::::::.OOO..O.11111<=X:::::::::::::::$$$",
"::::::::::::::.OOOO#O.<<<==&;;;;;;:::::::::::$$$",
":::::::::::::.O#;,#O.XXXXX;;2333;.:::::::::::@@@",
"::::::::::::::......#.O#;;2333,;O.:::::::::::@@@",
"::::::::::::::::..#.;O;;2333;;oXO.:::::::::::@@@",
"::::::::::::::::..;O;;2333,;.,o#O.:::::::::::@@@",
":::::::::::::::.O.;#2333;;#O.,;#O.:::::::::::@@@",
"::::::::::::::X%**O;33,;OO...,;XO.:::::::::::@@@",
">>>:::::::::::X+**O;O.,O,;#..,oXO.::::::::>>>@@@",
">>>::::::::::::X+%.O;.;.;;#..;oXO.::::::::>>>@@@",
">>>:::::::::::::XX%.;..O#%XX:.,X.:::::::::>>>@@@",
">>>::::::::::::::X%%..XO%%**X.;#.:::::::::>>>@@@",
">>>:::::::::::::::XXX::X+***X:..::::::::::>>>@@@",
">>>:::::::::::::::::::::XXXX::::::::::::::>>>@@@",
">>>>>>>>>:::::::::::::::::::::::::::>>>>>>>>>@@@",
">>>>>>>>>:::::::::::::::::::::::::::>>>>>>>>>@@@",
">>>>>>>>>:::::::::::::::::::::::::::>>>>>>>>>@@@",
"---------------------------------------------$$$",
"---------------------------------------------$$$",
"---------------------------------------------$$$",
"$$$@@@@@@@@@@@@$$$$$$$$$$$$@@@@@@@@@@@@@@@$$$$$$",
"$$$@@@@@@@@@@@@$$$$$$$$$$$$@@@@@@@@@@@@@@@$$$$$$",
"$$$@@@@@@@@@@@@$$$$$$$$$$$$@@@@@@@@@@@@@@@$$$$$$"
};
