/* XPM */
static char *result[] = {
/* columns rows colors chars-per-pixel */
"48 48 20 1 ",
"  c #2E1E22",
". c #323234",
"X c #534721",
"o c #6E5E2C",
"O c #545456",
"+ c #626262",
"@ c #767678",
"# c #7B7B7B",
"$ c #8B5E4A",
"% c #9D704C",
"& c #A77E5D",
"* c #D7906E",
"= c #929292",
"- c #979799",
"; c gray65",
": c #B7B7B7",
"> c #B7B7BB",
", c #EEBE93",
"< c #FFE1AF",
"1 c #D2D2D6",
/* pixels */
":::::::::;;;;;;;;;;;;;;;;;;;;;;;;;;;:::::::::###",
":::::::::;;;;;;;;;;;;;;;;;;;;;;;;;;;:::::::::###",
":::::::::;;;;;;;;;;;;;;;;;;;;;;;;;;;:::::::::###",
":::;;;;;;;;;;;;;;;;;;;;;;;;;;;;;;;;;;;;;;;:::+++",
":::;;;;;;;;;;;;;;;;;;;;;;;;;;;;;;;;;;;;;;;:::+++",
":::;;;;;;;;;;;;;;;;;;;;;;;;;;;;;;;;;;;;;;;:::+++",
":::;;;;;;;;;;;;;;;;;;;;;;;;;;;;;;;;;;;;;;;:::+++",
":::;;;;;;;;;;;;;;;;;;;;;;;;;;;;;;;;;;;;;;;:::+++",
":::;;;;;;;;;;;;;;;;;;.......;;;;;;;;;;;;;;:::+++",
";;;;;;;;;;;;;;;;;;;..OO@@@OO..;;;;;;;;;;;;;;;+++",
";;;;;;;;;;;;;;;;;;.O@@-----@@O.;;;;;;;;;;;;;;+++",
";;;;;;;;;;;;;;;;;.O@--->>>---@O.;;;;;;;;;;;;;+++",
";;;;;;;;;;;;;;;;.O@--->>>>>---@O.;;;;;;;;;;;;+++",
";;;;;;;;;;;;;;;.O@--->>>>>>>---@O.;;;;;;;;;;;+++",
";;;;;;;;;;;;;;;.@@--->>>>>>>---@@.;;;;;;;;;;;+++",
";;;;;;;;;;;;;;.O@----->>>>>-----@O.;;;;;;;;;;###",
";;;;;;;;;;;;;;..O@--@@...@------@O.;;;;;;;;;;###",
";;;;;;;;;;;;;.O-.OOOOO--@.@-----@O.;;;;;;;;;;###",
";;;;;;;;;;;-;.O@-->>>>>>-@.OO@-@@O.;;;;;;;;;;###",
";;;;;;;;;;;--;.O@@----@ >@O>-O@@@O.;;;;;;;;;;###",
";;;;;;;;;;;-1..        O>O>OO-.@OO.;;;;;;;;;;###",
";;;;;;;;;;;-1.O       O>-O-..@.OOO.;;;;;;;;;;###",
";;;;;;;;;;;;-1.O@--->>>-O.-..O.OOO.;;;;;;;;;;###",
";;;;;;;;;;;;-11..O@@--@O<..@O.OOO.;;;;;;;;;;;###",
";;;;;;;;;;;;;-111X*,<<<<<.O..OOO.;;;;;;;;;;;;###",
";;;;;;;;;;;;;;-111X%**,,,.O@OOOO.;;;;;;;;;;;;###",
";;;;;;;;;;;;;;;-111XXX.....O@>-@O.;;;;;;;;;;;###",
";;;;;;;;;;;;;;;;-1.O@@.O@-@......;;;;;;;;;;;;+++",
";;;;;;;;;;;;;;;;;-.O@-.OoX>>-@.;;;;;;;;;;;;;;+++",
";;;;;;;;;;;;;;;;;;..O-.OoXoXo@.;;;;;;;;;;;;;;+++",
";;;;;;;;;;;;;;;;;;.O@O.OoXoXo@.;;;;;;;;;;;;;;+++",
";;;;;;;;;;;;;;;;;;...O.O@->>-@.;;;;;;;;;;;;;;+++",
";;;;;;;;;;;;;;;;;.@.@-.O@->>-@.;;;;;;;;;;;;;;+++",
":::;;;;;;;;;;;;;;;..@-.OoXoXo@.;;;;;;;;;;;:::+++",
":::;;;;;;;;;;;;;;;;.O-.OoXoX-O.;;;;;;;;;;;:::+++",
":::;;;;;;;;;;;;;;;;;....@Xo-O.;;;;;;;;;;;;:::+++",
":::;;;;;;;;;;;;;;;;;;;X$.--O.;;;;;;;;;;;;;:::+++",
":::;;;;;;;;;;;;;;;;;;;X&&...;;;;;;;;;;;;;;:::+++",
":::;;;;;;;;;;;;;;;;;;;;XXXX;;;;;;;;;;;;;;;:::+++",
":::::::::;;;;;;;;;;;;;;;;;;;;;;;;;;;:::::::::+++",
":::::::::;;;;;;;;;;;;;;;;;;;;;;;;;;;:::::::::+++",
":::::::::;;;;;;;;;;;;;;;;;;;;;;;;;;;:::::::::+++",
"=============================================###",
"=============================================###",
"=============================================###",
"###++++++++++++############+++++++++++++++######",
"###++++++++++++############+++++++++++++++######",
"###++++++++++++############+++++++++++++++######"
};
