/* XPM */
static char *_6749c8f8713489696eb940c32647f2epVbIZDOqALy4n0Lo[] = {
/* columns rows colors chars-per-pixel */
"48 48 17 1 ",
"  c #070707",
". c #452E25",
"X c #58362A",
"o c #6E492F",
"O c #626262",
"+ c #767676",
"@ c #7B7B7B",
"# c #835835",
"$ c #B38047",
"% c #D09F69",
"& c #929292",
"* c #9E9E96",
"= c gray65",
"- c #B7B7B7",
"; c #C1C1C1",
": c #D7D7D7",
"> c gray94",
/* pixels */
"---------===========================---------@@@",
"---------===========================---------@@@",
"---------===========================---------@@@",
"---=======================================---OOO",
"---=======================================---OOO",
"---=======================================---OOO",
"---=======================================---OOO",
"---=======================================---OOO",
"---=======================================---OOO",
"=============================================OOO",
"============                        =========OOO",
"============                        =========OOO",
"==========  ****##$$$$****##$$$$****  =======OOO",
"==========  ****##$$$$****##$$$$****  =======OOO",
"==========  ::::$$%%%%::::$$%%%%::::  =======OOO",
"==========  ::::$$%%%%::::$$%%%%::::  =======@@@",
"========  ++>>>>##$$$$>>>>##$$$$>>>>++  =====@@@",
"========  ++>>>>##$$$$>>>>##$$$$>>>>++  =====@@@",
"========  **::::$$%%%%::::$$%%%%::::++  =====@@@",
"========  **::::$$%%%%::::$$%%%%::::++  =====@@@",
"========  ::****##$$$$****##$$$$****++  =====@@@",
"========  ::****##$$$$****##$$$$****++  =====@@@",
"========  ::++++####>>>>>>>>####++++**  =====@@@",
"========  ::++++####>>>>>>>>####++++**  =====@@@",
"========  >>>>>>>>>>;;;;;;;;>>>>>>>>>>  =====@@@",
"========  >>>>>>>>>>;;;;;;;;>>>>>>>>>>  =====@@@",
"========  ********++;;....;;++********  =====@@@",
"========  ********++;;....;;++********  =====OOO",
"==========  ++++XXXX********XXXX++++  =======OOO",
"==========  ++++XXXX********XXXX++++  =======OOO",
"==========  ****oooooooooooooooo****  =======OOO",
"==========  ****oooooooooooooooo****  =======OOO",
"==========  ****XXXXXXXXXXXXXXXX****  =======OOO",
"---=======  ****XXXXXXXXXXXXXXXX****  ====---OOO",
"---=======  ++++oooooooooooooooo++++  ====---OOO",
"---=======  ++++oooooooooooooooo++++  ====---OOO",
"---=======                            ====---OOO",
"---=======                            ====---OOO",
"---=======================================---OOO",
"---------===========================---------OOO",
"---------===========================---------OOO",
"---------===========================---------OOO",
"&&&&&&&&&&&&&&&&&&&&&&&&&&&&&&&&&&&&&&&&&&&&&@@@",
"&&&&&&&&&&&&&&&&&&&&&&&&&&&&&&&&&&&&&&&&&&&&&@@@",
"&&&&&&&&&&&&&&&&&&&&&&&&&&&&&&&&&&&&&&&&&&&&&@@@",
"@@@OOOOOOOOOOOO@@@@@@@@@@@@OOOOOOOOOOOOOOO@@@@@@",
"@@@OOOOOOOOOOOO@@@@@@@@@@@@OOOOOOOOOOOOOOO@@@@@@",
"@@@OOOOOOOOOOOO@@@@@@@@@@@@OOOOOOOOOOOOOOO@@@@@@"
};
