/* XPM */
static char *_a77bc537f264317e7c7652655ea133foJb6Ut1L8YemInGu[] = {
/* columns rows colors chars-per-pixel */
"48 48 148 2 ",
"   c #3E3429",
".  c #3E2A31",
"X  c #352E3C",
"o  c #3B2D3D",
"O  c #3E3234",
"+  c #36313C",
"@  c #39333D",
"#  c #4D390E",
"$  c #462E1B",
"%  c #433217",
"&  c #463917",
"*  c #45351A",
"=  c #423523",
"-  c #443823",
";  c #473529",
":  c #412D36",
">  c #412F3C",
",  c #413436",
"<  c #45323E",
"1  c #726019",
"2  c #7B5E33",
"3  c #6D602E",
"4  c #71602D",
"5  c #3C2D42",
"6  c #3A3341",
"7  c #3C3842",
"8  c #422E45",
"9  c #403242",
"0  c #5B574F",
"q  c #5D5452",
"w  c #5E5C54",
"e  c #5B5358",
"r  c #5E5B58",
"t  c #6B5F45",
"y  c #725841",
"u  c #615C56",
"i  c #635B5B",
"p  c #5A604E",
"a  c #5F6155",
"s  c #5F6159",
"d  c #63615A",
"f  c #68625D",
"g  c #635C61",
"h  c #626262",
"j  c #7B7B7B",
"k  c #95875B",
"l  c #978A5B",
"z  c #998C5D",
"x  c #9B8E61",
"c  c #968E6D",
"v  c #9A8C6F",
"b  c #959166",
"n  c #939169",
"m  c #8E8C75",
"M  c #86857E",
"N  c #88877E",
"B  c #8B897E",
"V  c #938E7B",
"C  c #91907C",
"Z  c #BBAC7F",
"A  c #8B8582",
"S  c #8D8C84",
"D  c #8D8B8E",
"F  c #938787",
"G  c #908E86",
"H  c #918D88",
"J  c #919087",
"K  c #93918A",
"L  c #8D8A90",
"P  c #929292",
"I  c #BCAD80",
"U  c #B6AC8C",
"Y  c #B8AB8D",
"T  c #B5B08D",
"R  c #B8B08C",
"E  c #A8A69E",
"W  c #A9AB9F",
"Q  c #B5AE9A",
"!  c #B7B094",
"~  c #B6B09E",
"^  c gray65",
"/  c #ABA7A2",
"(  c #AEACA4",
")  c #ABA6AD",
"_  c #ADAAAE",
"`  c #B1ADA6",
"'  c #B3ACAA",
"]  c #B6B0A7",
"[  c #B1B0AC",
"{  c #B7B3AD",
"}  c #B7B6AE",
"|  c #B3B1A9",
" . c #AFA6B0",
".. c #AFAEB1",
"X. c #AEABB0",
"o. c #B1ABB2",
"O. c #B4A9B2",
"+. c #B0ADB1",
"@. c #B0ADB3",
"#. c #B1AEB4",
"$. c #B1AEB4",
"%. c #B7B7B7",
"&. c #B7B7B7",
"*. c #E6DC9B",
"=. c #E2D2A7",
"-. c #E4D6AB",
";. c #E1DBAD",
":. c #E2DAB6",
">. c #D3CCCA",
",. c #D1D0C7",
"<. c #D4D3C4",
"1. c #DBD6C4",
"2. c #D2D1C8",
"3. c #D4D3CB",
"4. c #D5D2CA",
"5. c #D6D1CA",
"6. c #D5D1CC",
"7. c #D7D3CE",
"8. c #D7D4CC",
"9. c #D6D5CC",
"0. c #D7D6CD",
"q. c #D6D5CC",
"w. c #D9D3CA",
"e. c #DAD5CB",
"r. c #D9D3CC",
"t. c #D8D1CF",
"y. c #D8D5CD",
"u. c #DBD6CC",
"i. c #D8D5CF",
"p. c #D8D7CE",
"a. c #DCD7CF",
"s. c #D8D6CE",
"d. c #D9D8CF",
"f. c #D9D8CF",
"g. c #D9D6D0",
"h. c #DBD5D2",
"j. c #D9D7D1",
"k. c #DAD9D0",
"l. c #DBDAD2",
"z. c #DCD8D2",
"x. c #DDD9D4",
"c. c #DEDAD5",
"v. c #DEDDD4",
"b. c #DBD9D1",
"n. c #D6D2D8",
"m. c #D8D5DA",
"M. c #E0DACA",
"N. c #E0DDD7",
/* pixels */
"%.%.%.%.%.%.%.%.&.^ ^ ^ ^ ^ ^ ^ ^ ^ ^ ^ ^ ^ ^ ^ ^ ^ ^ ^ ^ ^ ^ ^ ^ ^ ^ ^ %.%.%.%.%.%.%.%.%.j j j ",
"%.%.%.%.%.%.%.%.&.^ ^ ^ ^ ^ ^ ^ ^ ^ ^ ^ ^ ^ ^ ^ ^ ^ ^ ^ ^ ^ ^ ^ ^ ^ ^ ^ %.%.%.%.%.%.%.%.%.j j j ",
"%.%.%.%.%.%.%.%.&.^ ^ ^ ^ ^ ^ ^ ^ ^ ^ ^ ^ ^ ^ ^ ^ ^ ^ ^ ^ ^ ^ ^ ^ ^ ^ ^ %.%.%.%.%.%.%.%.%.j j j ",
"%.%.%.2 $ = = = = = = = = = = = = = = = = = = = = = = = = = = = = Q Q Q ! T R U * - % # %.h h h ",
"%.%.%.y . @ @ @ @ @ @ @ @ @ @ @ @ @ @ @ @ @ @ @ @ @ @ @ @ @ @ @ @ @....._ E ( ' + @ , - &.h h h ",
"%.%.%.v u h i e i i i i i i i i i g g g g g g i i g h i i r r r u ( [ ( ( ( ( o.6 6 < - %.h h h ",
"%.%.&.b w u i i i i i i i i i i i i i i g g g i i g i i i r u f u ` ] E / / (  .5 5 > = %.h h h ",
"%.%.&.b p u F A F i i i i i i i i i i i g g i i i i g ' ' ` ` ` G e.w.] ` ` ' O.9 8 < ; %.h h h ",
"%.%.%.n w f F F u i i i i i i i i i i i i i i i i i i ' ` / ` ] B e.i.` ` / / ) o o : = %.h h h ",
"^ ^ ^ c w i A A i i i i i i i i i q u i u u u u u u w { ( / ` ` G 9.3./ / ` ' ) @ o O * ^ h h h ",
"^ ^ ^ v u i i i i i i i i i i i i u r u ( ` / G S G S 2./ ( | ( J 9.k./ ` ` ' @.@ 6 , * ^ h h h ",
"^ ^ ^ v u i i i i i i i i i i i i u u u | ` / S S S J 9./ ( ` ( S 9.3.( ` / ` ) @ @ O * ^ h h h ",
"^ ^ ^ v u i i i i i i i i i i i i f u u ( ` ` ` ` G S 3.| / ( / S 3.9.i.x.3.r._ @ 6 , * ^ h h h ",
"^ ^ ^ v u r r r r u u u u ` / G H G H S g.` ` ( ( S S 9./ ( ( / S 3.9.9.9.a.g._ @ @ O * ^ h h h ",
"^ ^ ^ v u r r r r u u u u ( ` K S S S A 9.` ` ( ( N J 3.( ( / ( A 9.9.9.7.a.g._ @ @ O * ^ h h h ",
"^ ^ ^ v u r r r r u u u u 7.i./ S H K H x.` ` ( ( S S d.d.9.( ( J 9.9.9.9.a.g._ @ @ O * ^ j j j ",
"^ ^ ^ v u w r r r u u u u 7.x.` A G H S g.` ` ( ( N S 9.d.9./ ( G 9.9.9.9.a.g._ @ @ O * ^ j j j ",
"^ ^ ^ v u f A S H S S S S i.x.` S G S N k.( | / ( N K k.k.9./ / S i.i./ / ` ' _ @ @ O * ^ j j j ",
"^ ^ ^ v u q S G S S S S S i.N.` H S S S d.| { E ( G S 9.9.9.( / S i.9.| | ] { ) @ @ O * ^ j j j ",
"^ ^ ^ v u f ' / H S S S S g.7.7./ | G A k.3.2.( ( S S v.9.9.} ( S 9.k.,.i.i.>.#.@ @ O * ^ j j j ",
"^ ^ ^ v u u g.i.( S S S S g.i.7.` ` G J 9.9.9.( ( S S 2.( | E | S 9.d.9.x.r.7.X.@ @ O % ^ j j j ",
"^ ^ ^ v u f 9.k.( S S S S d.9.9.( ( S S 9.i.3.` ( K S 9.| ( ( | J 9.9.9.i.x.h.@.7 @ O * ^ j j j ",
"^ ^ ^ v u 0 9.k./ S S S S 9.d.( ` ( G J d./ ( / ( S N k.2.,.| / G i.i.i.i.a.x.n.7 @ O * ^ j j j ",
"^ ^ ^ v u u d.9.| S S S S 9.d./ ` ( G J i./ ( / ( K S 9.i.k.( / S 9.9.9.i.i.7.m.@ X O % ^ j j j ",
"^ ^ ^ v u q 3.k.2.S S S S i.9.9.( ( S S 9.d.3.` ( N S 9.i.9.( | S ` ` ` ` / ' X.7 6 , * ^ j j j ",
"^ ^ ^ v u u g.9.g.( ( S S d.9.9.( ( S S 9.d.9.( ( K A 9.9.k.i.9./ ( ( ( ` ` ' _ @ @ O * ^ j j j ",
"^ ^ ^ v u u g.9.g.( ( S S d.i.9.( ( S G 9.d.2.] ` K K g.9.9.k.3.( ( ( ( ` ` ' _ @ @ O * ^ j j j ",
"^ ^ ^ v u u g.9.g.( ( S S d.i.9.( ( S G 9.( ( / ( S A ( H J S G J ( ( ( ` ` ' _ @ @ O * ^ h h h ",
"^ ^ ^ v u u g.9.k.( ( S S d.9.9.( ( S G 9./ ( ( | A K ( S S G S J ( ( ( ( ` ' _ @ @ O * ^ h h h ",
"^ ^ ^ v u u d.9.( ( ( S S k.9.( ( ( M S 9.i.i.i.i.S S ( ( ( ` ( ` ( ( ( ` ` ' ) @ X O % ^ h h h ",
"^ ^ ^ v u u k.3.( ( ( S S 9.d.( ( ( S G 9.d.d.d.d.S K ( ( / ( ( / ( ( ( ` ` ' _ 7 6 , * ^ h h h ",
"^ ^ ^ v u f 9.d.d.( ( S S 2.9.3.| / K N N S S S S S S K S N S S A S S S S H S P @ X O % ^ h h h ",
"^ ^ ^ v u u d.9.k.( ( S S 9.3.k.2.9.' ( S ( ( ( ( ( ( ( / / S S ( ( ( ( / / ' @.7 6 , * ^ h h h ",
"%.%.%.v u q 9.3.d.| ` A A d.9.d.9.g.( ( S ( ( ( ( ( ( ( ( ( J S | ( ( ( ` ' ( #.@ 6 , * %.h h h ",
"%.%.%.v u q 9.3.d.( ( A A J J A S H S H K ( ( ( ( ( ( ( ( ( S S | ( ( ( ` / ' @.+ X O % %.h h h ",
"%.%.%.v u q 9.3.d.| ` A A J S S N S H M S ( ( ( ( ( ( ( ( ( A A | ( ( ( ` ] ' ) @ @ O * %.h h h ",
"%.%.%.v u q 9.3.i.9.9.| | S N ( / ( ( ( S S S S S S S S S S S S G S S S S G H L + X O % %.h h h ",
"%.%.%.Y u w G S S S S S S S S S S S S S S S S S S S S ( ( ( ( ( | S S S G G H L + X O % %.h h h ",
"%.%.%.Y u w G S S S S S S S S S S S S S S S S S S S S / ( ( ( ( ` S S S G G H L + @ O * %.h h h ",
"%.%.%.Y u w G S S S S S S S S S S S S S S S S S S S S S S S S S G G S S G G H L + @ O * %.h h h ",
"%.%.%.U u w G S S S S S S S S S S S S S S S S S S S S A A S S A S S S S S G S D + + O % %.h h h ",
"%.%.%.:.A H r d u d d d d d d d d d d s s s s s s s s r r r r w s d w w u a d d r g   & %.h h h ",
"P P P ;.1.1.1.M.~ Q Q Q Q Q Q Q Q Q m m V V V C C V V V V V V V V V V V V m m m V V t 3 P j j j ",
"P P P *.;.-.-.=.I I I I I I I I I Z l z x x x x x x x x z z z z x x z z z z z l k k 4 1 P j j j ",
"P P P P P P P P P P P P P P P P P P P P P P P P P P P P P P P P P P P P P P P P P P P P P j j j ",
"j j j h h h h h h h h h h h h j j j j j j j j j j j j h h h h h h h h h h h h h h h j j j j j j ",
"j j j h h h h h h h h h h h h j j j j j j j j j j j j h h h h h h h h h h h h h h h j j j j j j ",
"j j j h h h h h h h h h h h h j j j j j j j j j j j j h h h h h h h h h h h h h h h j j j j j j "
};
