/* XPM */
static char *_b64cd4ad7f64c7485ba2c5de941baaf7k791356JnIwK5Iz[] = {
/* columns rows colors chars-per-pixel */
"48 48 5 1 ",
"  c #626262",
". c #7B7B7B",
"X c #929292",
"o c gray65",
"O c #B7B7B7",
/* pixels */
"OOOOOOOOOoooooooooooooooooooooooooooOOOOOOOOO...",
"OOOOOOOOOoooooooooooooooooooooooooooOOOOOOOOO...",
"OOOOOOOOOoooooooooooooooooooooooooooOOOOOOOOO...",
"OOOoooooooooooooooooooooooooooooooooooooooOOO   ",
"OOOoooooooooooooooooooooooooooooooooooooooOOO   ",
"OOOoooooooooooooooooooooooooooooooooooooooOOO   ",
"OOOoooooooooooooooooooooooooooooooooooooooOOO   ",
"OOOoooooooooooooooooooooooooooooooooooooooOOO   ",
"OOOoooooooooooooooooooooooooooooooooooooooOOO   ",
"ooooooooooooooooooooooooooooooooooooooooooooo   ",
"ooooooooooooooooooooooooooooooooooooooooooooo   ",
"ooooooooooooooooooooooooooooooooooooooooooooo   ",
"ooooooooooooooooooooooooooooooooooooooooooooo   ",
"ooooooooooooooooooooooooooooooooooooooooooooo   ",
"ooooooooooooooooooooooooooooooooooooooooooooo   ",
"ooooooooooooooooooooooooooooooooooooooooooooo...",
"ooooooooooooooooooooooooooooooooooooooooooooo...",
"ooooooooooooooooooooooooooooooooooooooooooooo...",
"ooooooooooooooooooooooooooooooooooooooooooooo...",
"ooooooooooooooooooooooooooooooooooooooooooooo...",
"ooooooooooooooooooooooooooooooooooooooooooooo...",
"ooooooooooooooooooooooooooooooooooooooooooooo...",
"ooooooooooooooooooooooooooooooooooooooooooooo...",
"ooooooooooooooooooooooooooooooooooooooooooooo...",
"ooooooooooooooooooooooooooooooooooooooooooooo...",
"ooooooooooooooooooooooooooooooooooooooooooooo...",
"ooooooooooooooooooooooooooooooooooooooooooooo...",
"ooooooooooooooooooooooooooooooooooooooooooooo   ",
"ooooooooooooooooooooooooooooooooooooooooooooo   ",
"ooooooooooooooooooooooooooooooooooooooooooooo   ",
"ooooooooooooooooooooooooooooooooooooooooooooo   ",
"ooooooooooooooooooooooooooooooooooooooooooooo   ",
"ooooooooooooooooooooooooooooooooooooooooooooo   ",
"OOOoooooooooooooooooooooooooooooooooooooooOOO   ",
"OOOoooooooooooooooooooooooooooooooooooooooOOO   ",
"OOOoooooooooooooooooooooooooooooooooooooooOOO   ",
"OOOoooooooooooooooooooooooooooooooooooooooOOO   ",
"OOOoooooooooooooooooooooooooooooooooooooooOOO   ",
"OOOoooooooooooooooooooooooooooooooooooooooOOO   ",
"OOOOOOOOOoooooooooooooooooooooooooooOOOOOOOOO   ",
"OOOOOOOOOoooooooooooooooooooooooooooOOOOOOOOO   ",
"OOOOOOOOOoooooooooooooooooooooooooooOOOOOOOOO   ",
"XXXXXXXXXXXXXXXXXXXXXXXXXXXXXXXXXXXXXXXXXXXXX...",
"XXXXXXXXXXXXXXXXXXXXXXXXXXXXXXXXXXXXXXXXXXXXX...",
"XXXXXXXXXXXXXXXXXXXXXXXXXXXXXXXXXXXXXXXXXXXXX...",
"...            ............               ......",
"...            ............               ......",
"...            ............               ......"
};
