/* XPM */
static char *_e541553dd1d48af9f78b7897b7ff4b9oeUkjkTcoGVVkxmF[] = {
/* columns rows colors chars-per-pixel */
"48 48 5 1 ",
"  c #1A1626",
". c #2C253F",
"X c #3D4466",
"o c #5B6699",
"O c #7987CC",
/* pixels */
"      .........               .........         ",
"      .........               .........         ",
"OOOOOOoooOOOOOOooo   OOOOOOOOOoooOOOOOOooo   OOO",
"OOOOOOoooOOOOOOooo   OOOOOOOOOoooOOOOOOooo   OOO",
"OOOOOOoooOOOOOOooo   OOOOOOOOOoooOOOOOOooo   OOO",
"oooooooooooooooooo   OOOoooooooooooooooooo   OOO",
"oooooooooooooooooo   OOOoooooooooooooooooo   OOO",
"oooooooooooooooooo   OOOoooooooooooooooooo   OOO",
"XXXXXXXXXXXXXXXXXX...XXXXXXXXXXXXXXXXXXXXX...XXX",
"XXXXXXXXXXXXXXXXXX...XXXXXXXXXXXXXXXXXXXXX...XXX",
"XXXXXXXXXXXXXXXXXX...XXXXXXXXXXXXXXXXXXXXX...XXX",
"               .........               .........",
"               .........               .........",
"               .........               .........",
"OOOOOOooo   OOOOOOOOOoooOOOOOOooo   OOOOOOOOOooo",
"OOOOOOooo   OOOOOOOOOoooOOOOOOooo   OOOOOOOOOooo",
"OOOOOOooo   OOOOOOOOOoooOOOOOOooo   OOOOOOOOOooo",
"ooooooooo   OOOoooooooooooooooooo   OOOooooooooo",
"ooooooooo   OOOoooooooooooooooooo   OOOooooooooo",
"ooooooooo   OOOoooooooooooooooooo   OOOooooooooo",
"XXXXXXXXX...XXXXXXXXXXXXXXXXXXXXX...XXXXXXXXXXXX",
"XXXXXXXXX...XXXXXXXXXXXXXXXXXXXXX...XXXXXXXXXXXX",
"XXXXXXXXX...XXXXXXXXXXXXXXXXXXXXX...XXXXXXXXXXXX",
"      .........               .........         ",
"      .........               .........         ",
"      .........               .........         ",
"OOOOOOoooOOOOOOooo   OOOOOOOOOoooOOOOOOooo   OOO",
"OOOOOOoooOOOOOOooo   OOOOOOOOOoooOOOOOOooo   OOO",
"OOOOOOoooOOOOOOooo   OOOOOOOOOoooOOOOOOooo   OOO",
"oooooooooooooooooo   OOOoooooooooooooooooo   OOO",
"oooooooooooooooooo   OOOoooooooooooooooooo   OOO",
"oooooooooooooooooo   OOOoooooooooooooooooo   OOO",
"XXXXXXXXXXXXXXXXXX...XXXXXXXXXXXXXXXXXXXXX...XXX",
"XXXXXXXXXXXXXXXXXX...XXXXXXXXXXXXXXXXXXXXX...XXX",
"XXXXXXXXXXXXXXXXXX...XXXXXXXXXXXXXXXXXXXXX...XXX",
"               .........               .........",
"               .........               .........",
"               .........               .........",
"OOOOOOooo   OOOOOOOOOoooOOOOOOooo   OOOOOOOOOooo",
"OOOOOOooo   OOOOOOOOOoooOOOOOOooo   OOOOOOOOOooo",
"OOOOOOooo   OOOOOOOOOoooOOOOOOooo   OOOOOOOOOooo",
"ooooooooo   OOOoooooooooooooooooo   OOOooooooooo",
"ooooooooo   OOOoooooooooooooooooo   OOOooooooooo",
"ooooooooo   OOOoooooooooooooooooo   OOOooooooooo",
"XXXXXXXXX...XXXXXXXXXXXXXXXXXXXXX...XXXXXXXXXXXX",
"XXXXXXXXX...XXXXXXXXXXXXXXXXXXXXX...XXXXXXXXXXXX",
"XXXXXXXXX...XXXXXXXXXXXXXXXXXXXXX...XXXXXXXXXXXX",
"      .........               .........         "
};
